<?xml version="1.0" encoding="utf-8"?>
<!-- Generator: Adobe Illustrator 24.0.2, SVG Export Plug-In . SVG Version: 6.00 Build 0)  -->
<svg version="1.1" id="Layer_1" xmlns="http://www.w3.org/2000/svg" xmlns:xlink="http://www.w3.org/1999/xlink" x="0px" y="0px"
	 viewBox="0 0 40 40" style="enable-background:new 0 0 40 40;" xml:space="preserve">
<style type="text/css">
	.st0{fill:#FCE3EE;}
	.st1{fill:#3A3A3A;}
</style>
<g id="Pen">
</g>
<path class="st0" d="M23.8,23.8c-4.2,4.2-6.9,7.9-8.7,10.9c1.5,0.5,3.2,0.9,4.9,0.9c8.5,0,15.5-7,15.5-15.5c0-3.1-0.9-5.9-2.3-8.2
	C31.1,15.4,28.1,19.5,23.8,23.8z"/>
<path class="st0" d="M16.3,16.3c4-4,6.7-7.8,8.5-11c-1.5-0.5-3.1-0.8-4.7-0.8c-8.5,0-15.5,7-15.5,15.5c-0.1,3,0.7,5.7,2.2,8.1
	C8.9,24.6,11.9,20.6,16.3,16.3z"/>
<path class="st1" d="M33.7,10.9c-0.2,0.3-0.4,0.6-0.5,1c1.5,2.4,2.3,5.2,2.3,8.1c0,8.5-7,15.5-15.5,15.5c-1.7,0-3.3-0.3-4.9-0.8
	c-0.2,0.3-0.4,0.6-0.5,0.9c1.7,0.6,3.5,0.9,5.4,0.9c9.1,0,16.5-7.4,16.5-16.5C36.5,16.6,35.4,13.5,33.7,10.9z"/>
<path class="st1" d="M6.8,28c-1.4-2.3-2.3-5.1-2.3-8c0-8.5,7-15.5,15.5-15.5c1.7,0,3.3,0.3,4.8,0.8C25,5,25.1,4.7,25.3,4.4
	c-1.7-0.6-3.5-0.9-5.4-0.9c-9,0-16.4,7.4-16.4,16.5c0,3.3,1,6.4,2.7,9C6.4,28.7,6.6,28.3,6.8,28z"/>
</svg>
