<?xml version="1.0" encoding="utf-8"?>
<!-- Generator: Adobe Illustrator 24.0.2, SVG Export Plug-In . SVG Version: 6.00 Build 0)  -->
<svg version="1.1" id="Pen" xmlns="http://www.w3.org/2000/svg" xmlns:xlink="http://www.w3.org/1999/xlink" x="0px" y="0px"
	 viewBox="0 0 40 40" style="enable-background:new 0 0 40 40;" xml:space="preserve">
<style type="text/css">
	.st0{fill:#D9534F;}
	.st1{fill:#CCCC00;fill-opacity:0.3;stroke:#3A3A3A;stroke-miterlimit:10;}
	.st2{fill:none;stroke:#3A3A3A;stroke-miterlimit:10;}
	.st3{fill:#CCCC00;stroke:#3A3A3A;stroke-miterlimit:10;}
</style>
<path class="st0" d="M20,35.99"/>
<path class="st1" d="M31.96,35.99L32,23c0-0.55-0.45-1-1-1h-1c0,0-3.96-2-3.96-8c0-0.51-0.48-0.89-0.99-0.89h-10.1
	c-0.51,0-0.99,0.38-0.99,0.89c0,6-3.96,8-3.96,8H9c-0.55,0-1,0.45-1,1l0.03,12.99"/>
<line class="st2" x1="10" y1="22" x2="30" y2="22"/>
<path class="st3" d="M23.09,4.62l-7,3.11C15.73,7.9,15.5,8.25,15.5,8.65V13h9V5.54C24.5,4.82,23.76,4.33,23.09,4.62z"/>
</svg>
