<?xml version="1.0" encoding="utf-8"?>
<!-- Generator: Adobe Illustrator 24.0.2, SVG Export Plug-In . SVG Version: 6.00 Build 0)  -->
<svg version="1.1" id="Pen" xmlns="http://www.w3.org/2000/svg" xmlns:xlink="http://www.w3.org/1999/xlink" x="0px" y="0px"
	 viewBox="0 0 40 40" style="enable-background:new 0 0 40 40;" xml:space="preserve">
<style type="text/css">
	.st0{fill:url(#SVGID_1_);}
	.st1{fill:none;stroke:#3A3A3A;stroke-miterlimit:10;}
	.st2{fill:#FFFFFF;}
	.st3{fill:url(#SVGID_2_);fill-opacity:0.3;stroke:#3A3A3A;stroke-miterlimit:10;}
</style>
<linearGradient id="SVGID_1_" gradientUnits="userSpaceOnUse" x1="15.9412" y1="9.5" x2="23.6742" y2="9.5">
	<stop  offset="0" style="stop-color:#00A8DE"/>
	<stop  offset="0.2" style="stop-color:#333391"/>
	<stop  offset="0.4" style="stop-color:#E91388"/>
	<stop  offset="0.6" style="stop-color:#EB2D2E"/>
	<stop  offset="0.8" style="stop-color:#FDE92B"/>
	<stop  offset="1" style="stop-color:#009E54"/>
</linearGradient>
<path class="st0" d="M16,15c0-5.52,1.79-11,4-11s4,5.48,4,11"/>
<path class="st1" d="M16,15c0-5.52,1.79-11,4-11s4,5.48,4,11"/>
<path class="st2" d="M20,35.99"/>
<linearGradient id="SVGID_2_" gradientUnits="userSpaceOnUse" x1="10.0034" y1="25.4972" x2="29.9966" y2="25.4972">
	<stop  offset="0" style="stop-color:#00A8DE"/>
	<stop  offset="0.2" style="stop-color:#333391"/>
	<stop  offset="0.4" style="stop-color:#E91388"/>
	<stop  offset="0.6" style="stop-color:#EB2D2E"/>
	<stop  offset="0.8" style="stop-color:#FDE92B"/>
	<stop  offset="1" style="stop-color:#009E54"/>
</linearGradient>
<path class="st3" d="M29.96,35.99L30,26c0-0.55-0.45-1-1-1h-1c0,0,0-7-2-10H14c-2,3-2,10-2,10h-1c-0.55,0-1,0.45-1,1l0.03,9.99"/>
<line class="st1" x1="12" y1="25" x2="28" y2="25"/>
</svg>
