<?xml version="1.0" encoding="utf-8"?>
<!-- Generator: Adobe Illustrator 24.0.2, SVG Export Plug-In . SVG Version: 6.00 Build 0)  -->
<svg version="1.1" id="Eraser" xmlns="http://www.w3.org/2000/svg" xmlns:xlink="http://www.w3.org/1999/xlink" x="0px" y="0px"
	 viewBox="0 0 40 40" style="enable-background:new 0 0 40 40;" xml:space="preserve">
<style type="text/css">
	.st0{fill:none;stroke:#3A3A3A;stroke-miterlimit:10;}
</style>
<path class="st0" d="M31.77,21.55c0.06-0.51,0.11-1.01,0.11-1.55c0-0.54-0.05-1.05-0.11-1.55l3.34-2.61
	c0.3-0.24,0.38-0.66,0.19-1.01l-3.17-5.48c-0.14-0.25-0.41-0.4-0.7-0.4c-0.09,0-0.19,0.02-0.27,0.05l-3.94,1.58
	c-0.82-0.63-1.71-1.16-2.68-1.55l-0.6-4.2c-0.05-0.38-0.38-0.67-0.78-0.67h-6.33c-0.4,0-0.73,0.29-0.78,0.67l-0.6,4.2
	c-0.97,0.4-1.85,0.93-2.68,1.55L8.84,9C8.75,8.96,8.65,8.95,8.56,8.95c-0.27,0-0.54,0.14-0.68,0.4l-3.17,5.48
	C4.5,15.17,4.6,15.6,4.9,15.84l3.34,2.61C8.18,18.95,8.13,19.48,8.13,20c0,0.52,0.05,1.05,0.11,1.55L4.9,24.16
	c-0.3,0.24-0.38,0.66-0.19,1.01l3.17,5.48c0.14,0.25,0.41,0.4,0.7,0.4c0.1,0,0.19-0.02,0.27-0.05l3.94-1.58
	c0.82,0.63,1.71,1.16,2.68,1.55l0.6,4.2c0.05,0.38,0.38,0.67,0.78,0.67h6.33c0.4,0,0.73-0.28,0.78-0.67l0.6-4.2
	c0.97-0.4,1.85-0.93,2.68-1.55L31.17,31c0.09,0.03,0.19,0.05,0.29,0.05c0.27,0,0.54-0.14,0.68-0.4l3.17-5.48
	c0.19-0.35,0.11-0.78-0.19-1.01L31.77,21.55z"/>
<circle class="st0" cx="20" cy="20" r="6.33"/>
</svg>
