<?xml version="1.0" encoding="utf-8"?>
<!-- Generator: Adobe Illustrator 24.0.2, SVG Export Plug-In . SVG Version: 6.00 Build 0)  -->
<svg version="1.1" id="Eraser" xmlns="http://www.w3.org/2000/svg" xmlns:xlink="http://www.w3.org/1999/xlink" x="0px" y="0px"
	 viewBox="0 0 40 40" style="enable-background:new 0 0 40 40;" xml:space="preserve">
<style type="text/css">
	.st0{fill:#666666;}
	.st1{fill:none;stroke:#3A3A3A;stroke-width:6;stroke-miterlimit:10;}
	.st2{fill:none;stroke:#3A3A3A;stroke-width:4;stroke-miterlimit:10;}
	.st3{fill:none;stroke:#3A3A3A;stroke-width:2;stroke-miterlimit:10;}
</style>
<path class="st0" d="M100.78,31.2h-34c-1.32,0-2.4,1.08-2.4,2.4s1.08,2.4,2.4,2.4h34c1.32,0,2.4-1.08,2.4-2.4
	S102.1,31.2,100.78,31.2z M100.78,19.18h-34c-1.32,0-2.4,1.08-2.4,2.4v2.4c0,1.32,1.08,2.4,2.4,2.4h34c1.32,0,2.4-1.08,2.4-2.4v-2.4
	C103.18,20.27,102.1,19.18,100.78,19.18z M100.78,4.77h-34c-1.32,0-2.4,1.08-2.4,2.4v4.8c0,1.32,1.08,2.4,2.4,2.4h34
	c1.32,0,2.4-1.08,2.4-2.4v-4.8C103.18,5.85,102.1,4.77,100.78,4.77z"/>
<line class="st1" x1="8" y1="12" x2="32" y2="12"/>
<line class="st2" x1="8" y1="22" x2="32" y2="22"/>
<line class="st3" x1="8" y1="30" x2="32" y2="30"/>
</svg>
